<?xml version="1.0" standalone="no"?>
<!DOCTYPE svg PUBLIC "-//W3C//DTD SVG 20010904//EN"
 "http://www.w3.org/TR/2001/REC-SVG-20010904/DTD/svg10.dtd">
<svg version="1.0" xmlns="http://www.w3.org/2000/svg"
 width="512.000000pt" height="512.000000pt" viewBox="0 0 512.000000 512.000000"
 preserveAspectRatio="xMidYMid meet">

<g transform="translate(0.000000,512.000000) scale(0.100000,-0.100000)"
fill="#000000" stroke="none">
<path d="M791 4749 c-25 -5 -78 -25 -119 -44 -91 -43 -193 -142 -234 -227 -61
-126 -58 -9 -58 -1918 0 -1909 -3 -1792 58 -1918 41 -85 143 -184 233 -227 41
-19 98 -39 128 -45 35 -6 648 -10 1765 -10 1885 0 1775 -3 1900 63 78 40 173
135 213 213 66 125 63 12 63 1924 0 1912 3 1799 -63 1924 -40 78 -135 173
-213 213 -125 66 -13 63 -1909 62 -946 -1 -1740 -5 -1764 -10z"/>
</g>
</svg>
